<svg width="511" height="63" viewBox="0 0 511 63" fill="none" xmlns="http://www.w3.org/2000/svg">
<path d="M54.028 62H46.944L40.504 44.612H13.64L7.2 62H0.208L23.208 1.28H31.12L54.028 62ZM15.94 38.356H38.204L27.072 7.72L15.94 38.356ZM88.2348 1.28C94.1228 1.28 98.8454 2.844 102.403 5.972C106.021 9.1 107.831 13.3933 107.831 18.852C107.831 22.4707 107.003 25.5067 105.347 27.96C103.691 30.352 101.36 32.2227 98.3548 33.572C95.4108 34.9213 92.0068 35.872 88.1428 36.424L87.4988 36.516H72.6868V62H66.0628V1.28H88.2348ZM88.0508 30.26C92.2828 30.26 95.4721 29.3093 97.6188 27.408C99.7654 25.4453 100.839 22.5933 100.839 18.852C100.839 15.0493 99.7654 12.1973 97.6188 10.296C95.4721 8.39466 92.2828 7.44399 88.0508 7.44399H72.6868V30.26H88.0508ZM92.0988 31.548L111.143 62H103.323L86.5788 35.228L92.0988 31.548ZM163.778 1.28V7.44399H143.17V62H136.546V7.44399H115.938V1.28H163.778ZM176.391 62V1.28H217.147V7.44399H183.015V28.052H209.695V34.308H183.015V55.836H218.435V62H176.391ZM273.017 62H265.381L249.189 36.332L232.813 62H225.085L245.693 30.996L226.925 1.28H234.653L249.833 25.476L265.013 1.28H272.281L253.329 30.72L273.017 62ZM306.985 62.92C301.71 62.92 297.018 61.724 292.909 59.332C288.861 56.94 285.672 53.4133 283.341 48.752C281.072 44.0907 279.937 38.4173 279.937 31.732C279.937 25.1693 281.133 19.5573 283.525 14.896C285.978 10.2347 289.444 6.64667 293.921 4.132C298.398 1.61733 303.673 0.359998 309.745 0.359998C316.492 0.359998 321.92 1.61733 326.029 4.132C330.2 6.58533 333.42 10.5107 335.689 15.908L321.061 21.704C320.325 18.576 318.976 16.3067 317.013 14.896C315.05 13.4853 312.658 12.78 309.837 12.78C306.954 12.78 304.47 13.516 302.385 14.988C300.361 16.3987 298.797 18.5147 297.693 21.336C296.65 24.096 296.129 27.5307 296.129 31.64C296.129 35.9333 296.65 39.5213 297.693 42.404C298.797 45.2253 300.422 47.3413 302.569 48.752C304.777 50.1627 307.476 50.868 310.665 50.868C312.321 50.868 313.854 50.6533 315.265 50.224C316.676 49.7947 317.902 49.1813 318.945 48.384C319.988 47.5253 320.816 46.4827 321.429 45.256C322.042 43.968 322.349 42.4653 322.349 40.748V39.828H309.009V29.248H335.781V62H325.017L323.821 47.74L326.397 49.948C325.17 54.0573 322.932 57.2467 319.681 59.516C316.43 61.7853 312.198 62.92 306.985 62.92ZM347.919 62V1.28H394.103V13.516H363.743V25.844H387.939V37.344H363.743V49.764H395.299V62H347.919ZM428.064 0.359998C433.523 0.359998 438.368 1.21867 442.6 2.936C446.893 4.65333 450.604 7.22933 453.732 10.664L446.188 20.876C443.551 18.116 440.729 16.0613 437.724 14.712C434.78 13.3013 431.468 12.596 427.788 12.596C425.641 12.596 423.893 12.8413 422.544 13.332C421.256 13.8227 420.305 14.4973 419.692 15.356C419.079 16.2147 418.772 17.196 418.772 18.3C418.772 19.8333 419.416 21.0293 420.704 21.888C422.053 22.6853 423.832 23.3293 426.04 23.82L435.976 26.12C441.925 27.4693 446.28 29.524 449.04 32.284C451.8 34.9827 453.18 38.5707 453.18 43.048C453.18 47.3413 452.076 50.9907 449.868 53.996C447.721 56.94 444.747 59.1787 440.944 60.712C437.141 62.184 432.817 62.92 427.972 62.92C424.047 62.92 420.305 62.4907 416.748 61.632C413.191 60.712 409.94 59.424 406.996 57.768C404.113 56.112 401.66 54.2107 399.636 52.064L407.18 41.484C408.713 43.2627 410.584 44.8573 412.792 46.268C415 47.6173 417.392 48.6907 419.968 49.488C422.544 50.2853 425.151 50.684 427.788 50.684C429.873 50.684 431.56 50.4693 432.848 50.04C434.197 49.6107 435.209 48.9667 435.884 48.108C436.559 47.2493 436.896 46.2373 436.896 45.072C436.896 43.784 436.436 42.68 435.516 41.76C434.657 40.84 433.032 40.104 430.64 39.552L419.692 37.068C416.687 36.3933 413.865 35.4427 411.228 34.216C408.591 32.928 406.444 31.1493 404.788 28.88C403.132 26.6107 402.304 23.6973 402.304 20.14C402.304 16.3373 403.316 12.964 405.34 10.02C407.425 7.01467 410.4 4.65333 414.264 2.936C418.128 1.21867 422.728 0.359998 428.064 0.359998ZM510.27 1.28V13.516H491.042V62H475.218V13.516H455.898V1.28H510.27Z" fill="black"/>
</svg>
