<svg width="346" height="68" viewBox="0 0 346 68" fill="none" xmlns="http://www.w3.org/2000/svg">
<path fill-rule="evenodd" clip-rule="evenodd" d="M6 40.7491H11.3162C11.7356 29.8522 20.7019 21.147 31.7014 21.147H42.7287C45.6404 21.147 48.4097 21.757 50.9156 22.8562C49.3548 16.5905 43.6903 11.948 36.9415 11.948H20.4544C12.4715 11.948 6 18.4195 6 26.4024V40.7491ZM6 46.7491H11.9699C14.2697 55.4964 22.2321 61.948 31.7014 61.948H42.7287C53.9956 61.948 63.1292 52.8144 63.1292 41.5475C63.1292 35.9993 60.9144 30.9684 57.3207 27.2907C57.3349 26.9784 57.342 26.6643 57.342 26.3485C57.342 15.0816 48.2084 5.948 36.9415 5.948H20.4544C9.15775 5.948 0 15.1058 0 26.4024V40.7491V46.7491H6ZM57.1292 41.5475C57.1292 39.1342 56.5356 36.8595 55.4863 34.8616C52.2603 41.8777 45.1698 46.7491 36.9415 46.7491H18.2689C20.3547 52.1315 25.5823 55.948 31.7014 55.948H42.7287C50.6819 55.948 57.1292 49.5007 57.1292 41.5475ZM36.9415 40.7491C43.7338 40.7491 49.4278 36.0465 50.9453 29.7196C48.6151 28.0978 45.7829 27.147 42.7287 27.147H31.7014C24.0161 27.147 17.7369 33.1672 17.3226 40.7491H36.9415ZM32.3383 29.4705C29.7965 29.4705 27.736 31.531 27.736 34.0728C27.736 36.6145 29.7965 38.675 32.3383 38.675C34.88 38.675 36.9405 36.6145 36.9405 34.0728C36.9405 31.531 34.88 29.4705 32.3383 29.4705Z" fill="black"/>
<path d="M103.657 21.672V2.16H111.433V52.56H103.657V47.376C100.705 51.48 96.5292 53.496 91.0572 53.496C86.0892 53.496 81.9132 51.696 78.3852 48.024C74.8572 44.352 73.1292 39.816 73.1292 34.56C73.1292 29.232 74.8572 24.768 78.3852 21.096C81.9132 17.424 86.0892 15.624 91.0572 15.624C96.5292 15.624 100.705 17.64 103.657 21.672ZM84.1452 42.84C86.3052 45 89.0412 46.08 92.2812 46.08C95.5212 46.08 98.2572 45 100.417 42.84C102.577 40.608 103.657 37.872 103.657 34.56C103.657 31.248 102.577 28.512 100.417 26.352C98.2572 24.12 95.5212 23.04 92.2812 23.04C89.0412 23.04 86.3052 24.12 84.1452 26.352C81.9852 28.512 80.9052 31.248 80.9052 34.56C80.9052 37.872 81.9852 40.608 84.1452 42.84Z" fill="black"/>
<path d="M127.841 9.72C125.897 11.664 122.873 11.664 120.857 9.72C118.913 7.704 118.913 4.68 120.857 2.736C122.801 0.719999 125.969 0.719999 127.913 2.736C129.857 4.68 129.857 7.704 127.841 9.72ZM128.273 52.56H120.497V16.56H128.273V52.56Z" fill="black"/>
<path d="M165.957 21.888V16.56H173.589V50.904C173.589 56.376 171.789 60.552 168.189 63.504C164.589 66.456 160.197 67.896 155.085 67.896C146.805 67.896 141.117 65.016 138.021 59.184L144.717 55.296C146.589 58.968 150.117 60.84 155.229 60.84C161.925 60.84 165.957 57.168 165.957 50.904V46.512C163.005 50.688 158.829 52.776 153.429 52.776C148.317 52.776 144.069 50.976 140.541 47.376C137.013 43.704 135.285 39.312 135.285 34.2C135.285 29.088 137.013 24.696 140.541 21.096C144.069 17.424 148.317 15.624 153.429 15.624C158.829 15.624 163.005 17.712 165.957 21.888ZM146.301 42.264C148.533 44.424 151.269 45.504 154.509 45.504C157.749 45.504 160.485 44.424 162.645 42.264C164.877 40.104 165.957 37.44 165.957 34.2C165.957 30.96 164.877 28.296 162.645 26.136C160.485 23.976 157.749 22.896 154.509 22.896C151.269 22.896 148.533 23.976 146.301 26.136C144.141 28.296 143.061 30.96 143.061 34.2C143.061 37.44 144.141 40.104 146.301 42.264Z" fill="black"/>
<path d="M189.997 9.72C188.053 11.664 185.029 11.664 183.013 9.72C181.069 7.704 181.069 4.68 183.013 2.736C184.957 0.719999 188.125 0.719999 190.069 2.736C192.013 4.68 192.013 7.704 189.997 9.72ZM190.429 52.56H182.653V16.56H190.429V52.56Z" fill="black"/>
<path d="M219.546 16.56V24.048H210.618V41.328C210.618 45.936 213.642 45.864 219.546 45.576V52.56C207.666 54 202.842 50.76 202.842 41.328V24.048H196.218V16.56H202.842V8.784L210.618 6.48V16.56H219.546Z" fill="black"/>
<path d="M253.634 21.672V16.56H261.41V52.56H253.634V47.376C250.682 51.48 246.506 53.496 241.034 53.496C236.066 53.496 231.89 51.696 228.362 48.024C224.834 44.352 223.106 39.816 223.106 34.56C223.106 29.232 224.834 24.768 228.362 21.096C231.89 17.424 236.066 15.624 241.034 15.624C246.506 15.624 250.682 17.64 253.634 21.672ZM234.122 42.84C236.282 45 239.018 46.08 242.258 46.08C245.498 46.08 248.234 45 250.394 42.84C252.554 40.608 253.634 37.872 253.634 34.56C253.634 31.248 252.554 28.512 250.394 26.352C248.234 24.12 245.498 23.04 242.258 23.04C239.018 23.04 236.282 24.12 234.122 26.352C231.962 28.512 230.882 31.248 230.882 34.56C230.882 37.872 231.962 40.608 234.122 42.84Z" fill="black"/>
<path d="M278.249 52.56H270.473V0H278.249V52.56Z" fill="black"/>
<path d="M303.022 0.960001L286.222 52.76H282.262L299.062 0.960001H303.022Z" fill="black"/>
<path d="M337.49 22.824V2.16H345.77V52.56H337.49V30.744H315.89V52.56H307.61V2.16H315.89V22.824H337.49Z" fill="black"/>
</svg>
